Coordinates
version=1
nRows=19
nColumns=24
inDegrees=yes

Units are S.I. units (second, meters, Newtons, ...)
Angles are in degrees.

endheader
time	pelvis_tilt	pelvis_list	pelvis_rotation	pelvis_tx	pelvis_ty	pelvis_tz	hip_flexion_r	hip_adduction_r	hip_rotation_r	knee_angle_r	ankle_angle_r	subtalar_angle_r	mtp_angle_r	hip_flexion_l	hip_adduction_l	hip_rotation_l	knee_angle_l	ankle_angle_l	subtalar_angle_l	mtp_angle_l	lumbar_extension	lumbar_bending	lumbar_rotation
      1.06250000	     -1.75949193	      0.74757458	      3.21176921	      0.58217325	      1.01499813	      0.26668931	     10.18922114	      4.22435227	      2.11703653	    -14.87681728	      4.77965204	    -14.74957109	      8.54134897	     14.08500479	      0.95788433	     -0.61155949	    -66.20840865	      6.02599539	     -7.66972329	      6.48476265	     -0.06442426	      0.40161760	      0.41667658
      1.06666667	     -1.75123989	      0.82892603	      2.90560184	      0.58698486	      1.01558641	      0.26711337	      9.73395976	      4.17455621	      2.26832884	    -14.55542320	      4.85458592	    -14.52793440	      8.64655195	     14.62762878	      1.01064310	     -0.89591477	    -65.99111463	      6.21389758	     -7.60723760	      6.37207989	     -0.10351158	      0.32227688	      0.68417279
      1.07083333	     -1.74614534	      0.91160689	      2.60235213	      0.59178437	      1.01615034	      0.26753775	      9.28424379	      4.11987208	      2.41515032	    -14.23523012	      4.92365900	    -14.32243987	      8.74617086	     15.16571184	      1.05947053	     -1.18067139	    -65.73737902	      6.38732558	     -7.56875208	      6.26751529	     -0.14584799	      0.23497425	      0.93341935
      1.07500000	     -1.73579948	      0.99412064	      2.29749134	      0.59655338	      1.01668384	      0.26796450	      8.83290918	      4.06195888	      2.56966726	    -13.91722508	      4.96873431	    -14.11509181	      8.80652470	     15.69598971	      1.09800725	     -1.47539777	    -65.46121303	      6.54770721	     -7.56172828	      6.20750181	     -0.18276566	      0.14183116	      1.09648391
      1.07916667	     -1.72380180	      1.08319741	      2.00630163	      0.60133167	      1.01721141	      0.26835159	      8.37633433	      3.99101148	      2.72545494	    -13.59615182	      5.03223855	    -13.91362496	      8.85422296	     16.20867800	      1.15199960	     -1.74355585	    -65.13670335	      6.71235852	     -7.54779644	      6.16204674	     -0.21753331	      0.07367988	      1.27346303
      1.08333333	     -1.70542086	      1.15810955	      1.70738871	      0.60607373	      1.01768941	      0.26879280	      7.92507865	      3.93644369	      2.87681737	    -13.29365649	      5.12260727	    -13.71021718	      8.93016737	     16.71431717	      1.16628842	     -2.03883035	    -64.79715139	      6.86850135	     -7.52744761	      6.08638690	     -0.27907207	     -0.03568344	      1.60321010
      1.08750000	     -1.69146824	      1.24233540	      1.43280617	      0.61081113	      1.01815186	      0.26915594	      7.47372121	      3.86201361	      3.02044232	    -12.98465049	      5.22822305	    -13.51561620	      9.03898488	     17.21358430	      1.21086356	     -2.28671088	    -64.41542313	      7.01246008	     -7.52915226	      5.97331903	     -0.32360447	     -0.11148947	      1.93839679
      1.09166667	     -1.70514917	      1.30547813	      1.14707740	      0.61553285	      1.01852092	      0.26955209	      7.06120365	      3.81012175	      3.17060897	    -12.68471290	      5.27952747	    -13.33533265	      9.09729649	     17.74188222	      1.21321454	     -2.56181658	    -64.02312365	      7.15317005	     -7.54615167	      5.91309606	     -0.33406485	     -0.19030571	      2.07124682
      1.09583333	     -1.69345253	      1.38288966	      0.87050469	      0.62024386	      1.01890658	      0.26993530	      6.62145978	      3.73945820	      3.32563029	    -12.38943120	      5.38616749	    -13.15438410	      9.19848508	     18.22916168	      1.23383163	     -2.81873406	    -63.58721933	      7.28324152	     -7.55012505	      5.80325590	     -0.38045151	     -0.26872486	      2.39727198
      1.10000000	     -1.70816962	      1.45152525	      0.59951559	      0.62492540	      1.01922182	      0.27028695	      6.21718885	      3.67220993	      3.48134919	    -12.10099216	      5.43411392	    -12.97687631	      9.23711729	     18.74114613	      1.24659959	     -3.06555991	    -63.12995851	      7.40435201	     -7.57779328	      5.76204650	     -0.39875138	     -0.33409712	      2.48530285
      1.10416667	     -1.68293256	      1.52756509	      0.32054493	      0.62961831	      1.01957063	      0.27068356	      5.77431521	      3.59820242	      3.63839558	    -11.82633402	      5.53101806	    -12.79845429	      9.29623800	     19.19179410	      1.24800987	     -3.33961794	    -62.62854749	      7.51109396	     -7.59421643	      5.69480580	     -0.45048634	     -0.43264830	      2.72809732
      1.10833333	     -1.68956908	      1.59181840	      0.05571798	      0.63430051	      1.01984862	      0.27102107	      5.36529448	      3.52936126	      3.78493944	    -11.54796826	      5.62851794	    -12.62849678	      9.36760045	     19.67216890	      1.24992611	     -3.57772802	    -62.10623278	      7.60840678	     -7.61344917	      5.60746770	     -0.47012781	     -0.49693778	      3.00387795
      1.11250000	     -1.71021277	      1.62936009	     -0.16316313	      0.63896907	      1.02006035	      0.27129596	      4.95621635	      3.48391873	      3.91562065	    -11.23873307	      5.70689086	    -12.47468366	      9.38526977	     20.17194637	      1.24117985	     -3.74615737	    -61.57784446	      7.71125419	     -7.63294422	      5.58827255	     -0.46838121	     -0.53686831	      3.05159494
      1.11666667	     -1.66775335	      1.70629664	     -0.45725583	      0.64359643	      1.02034697	      0.27167664	      4.51563531	      3.39700975	      4.08975921	    -10.99461589	      5.79554231	    -12.27529545	      9.47811343	     20.57219208	      1.23513202	     -4.02123616	    -60.98558470	      7.78294783	     -7.64587167	      5.45972801	     -0.57361079	     -0.62502724	      3.46318347
      1.12083333	     -1.67430861	      1.76940686	     -0.71774038	      0.64821995	      1.02053251	      0.27200620	      4.12165625	      3.32127628	      4.25744942	    -10.73895149	      5.87182872	    -12.11821756	      9.51020228	     21.02405257	      1.22717873	     -4.24599685	    -60.37686893	      7.83970216	     -7.63848873	      5.41516906	     -0.60312048	     -0.69939944	      3.54550586
      1.12500000	     -1.68469736	      1.82367763	     -0.96828507	      0.65284110	      1.02066804	      0.27232498	      3.73177838	      3.25225261	      4.41539291	    -10.48313469	      5.95890523	    -11.95357672	      9.54103445	     21.47307831	      1.21013444	     -4.45523190	    -59.74807402	      7.89045934	     -7.63117389	      5.36973762	     -0.63330709	     -0.76804682	      3.69785903
      1.12916667	     -1.65932659	      1.88225307	     -1.22021763	      0.65746648	      1.02083542	      0.27261192	      3.31085350	      3.17123089	      4.54938130	    -10.24486256	      6.09216437	    -11.77604657	      9.60460890	     21.86336487	      1.20378543	     -4.65231501	    -59.07589153	      7.92333193	     -7.62177026	      5.26253058	     -0.69020414	     -0.82408892	      4.03940617
      1.13333333	     -1.68478437	      1.92798762	     -1.46893462	      0.66207663	      1.02089459	      0.27290418	      2.94884713	      3.10482606	      4.70137972	    -10.01116472	      6.19093043	    -11.61774232	      9.65816911	     22.30493867	      1.17606354	     -4.84654354	    -58.39039433	      7.94677319	     -7.58790566	      5.16379477	     -0.69504278	     -0.87928307	      4.22734629
      1.13750000	     -1.70460034	      1.96164635	     -1.69736542	      0.66668315	      1.02093242	      0.27316665	      2.56934137	      3.04710448	      4.84642453	     -9.75197878	      6.25240532	    -11.45603434	      9.67451971	     22.73367113	      1.14122534	     -5.01161797	    -57.68610218	      7.95921791	     -7.54629432	      5.13529732	     -0.71182312	     -0.92617648	      4.28211496
